<?xml version="1.0" standalone="no"?>
<!DOCTYPE svg PUBLIC "-//W3C//DTD SVG 20010904//EN"
 "http://www.w3.org/TR/2001/REC-SVG-20010904/DTD/svg10.dtd">
<svg version="1.0" xmlns="http://www.w3.org/2000/svg"
 width="224.000000pt" height="224.000000pt" viewBox="0 0 224.000000 224.000000"
 preserveAspectRatio="xMidYMid meet">
<metadata>
Created by potrace 1.14, written by Peter Selinger 2001-2017
</metadata>
<g transform="translate(0.000000,224.000000) scale(0.100000,-0.100000)"
fill="#000000" stroke="none">
<path d="M470 1865 c-304 -65 -517 -374 -461 -667 16 -83 79 -211 135 -274 60
-68 165 -138 256 -172 l75 -27 623 -3 c694 -3 681 -4 822 65 93 45 210 158
257 248 148 283 32 631 -258 774 -142 70 -150 71 -804 70 -455 0 -594 -4 -645
-14z m288 -81 c74 -19 93 -41 67 -80 -17 -27 -23 -28 -59 -14 -55 21 -146 29
-208 19 -88 -14 -159 -49 -223 -110 -171 -161 -174 -428 -7 -592 103 -101 236
-144 364 -118 119 25 125 25 137 2 18 -33 -2 -58 -62 -76 -236 -72 -489 38
-597 259 -49 101 -65 191 -51 286 25 161 99 280 224 361 125 81 262 102 415
63z m1012 -4 c150 -44 279 -167 330 -315 65 -188 20 -378 -124 -520 -120 -119
-269 -170 -430 -147 -344 49 -542 412 -392 717 44 88 84 136 158 191 132 97
290 123 458 74z m-1096 -326 c11 -10 16 -34 16 -70 l0 -54 59 0 c41 0 65 -5
75 -16 19 -18 19 -20 6 -45 -9 -16 -22 -19 -75 -19 l-65 0 0 -64 c0 -65 -14
-96 -44 -96 -26 0 -36 26 -36 92 l0 68 -63 0 c-67 0 -87 10 -87 46 0 28 17 34
91 34 l59 0 0 58 c0 76 27 104 64 66z"/>
<path d="M1551 1709 c-128 -18 -264 -119 -318 -236 -127 -275 83 -594 390
-593 97 0 218 52 290 124 166 166 168 409 6 581 -94 100 -226 144 -368 124z
m107 -222 c22 -17 14 -65 -13 -83 -21 -14 -31 -15 -51 -6 -30 14 -38 33 -30
67 10 40 57 51 94 22z m-144 -169 c12 -33 3 -55 -28 -70 -38 -17 -78 12 -74
55 6 59 82 70 102 15z m294 18 c21 -27 20 -47 -2 -72 -18 -22 -28 -26 -49 -20
-32 8 -51 39 -43 70 10 39 71 53 94 22z m-150 -149 c19 -15 14 -62 -8 -82 -39
-35 -99 6 -86 59 10 41 56 52 94 23z"/>
<path d="M121 484 c-23 -30 -25 -42 -12 -77 18 -45 101 -57 126 -17 12 19 -3
23 -27 6 -28 -20 -42 -20 -62 0 -19 18 -21 65 -4 82 17 17 65 15 76 -4 7 -12
11 -13 16 -5 13 20 -15 41 -54 41 -30 0 -43 -6 -59 -26z"/>
<path d="M276 498 c4 -7 16 -26 28 -42 11 -17 20 -41 21 -55 0 -35 25 -40 25
-4 0 16 12 46 26 66 33 49 21 63 -15 18 l-28 -34 -19 31 c-10 18 -24 32 -32
32 -8 0 -10 -5 -6 -12z"/>
<path d="M439 455 c-1 -30 -2 -61 -3 -67 -1 -9 16 -13 54 -13 50 0 55 2 58 24
2 13 -1 28 -6 33 -7 7 -7 16 1 28 17 29 -7 50 -59 50 l-44 0 -1 -55z m79 18
c-2 -11 -14 -19 -31 -21 -22 -3 -27 1 -27 17 0 17 6 21 31 21 24 0 30 -4 27
-17z m9 -59 c7 -19 -13 -34 -44 -34 -18 0 -23 6 -23 25 0 21 5 25 30 25 19 0
33 -6 37 -16z"/>
<path d="M590 440 c0 -74 -2 -72 55 -72 41 0 49 2 41 9 -3 4 -21 7 -39 7 -25
1 -33 6 -35 24 -3 19 1 22 32 22 20 0 36 5 36 10 0 6 -16 10 -35 10 -28 0 -35
4 -35 20 0 17 7 20 40 20 22 0 40 5 40 10 0 6 -22 10 -50 10 l-50 0 0 -70z"/>
<path d="M728 460 c-1 -27 -2 -57 -2 -67 -1 -9 5 -18 12 -20 7 -3 12 5 12 21
0 35 36 36 52 1 6 -14 17 -25 25 -25 17 0 16 5 -2 34 -14 21 -14 24 0 29 18 7
20 48 3 65 -7 7 -31 12 -55 12 l-43 0 -2 -50z m87 20 c10 -16 -15 -40 -41 -40
-19 0 -24 5 -24 25 0 21 5 25 29 25 17 0 33 -5 36 -10z"/>
<path d="M950 490 c-46 -46 -11 -124 55 -124 27 0 43 6 56 23 42 52 10 121
-56 121 -22 0 -43 -8 -55 -20z m98 -29 c17 -49 -15 -90 -60 -75 -26 8 -40 48
-28 78 16 43 73 41 88 -3z"/>
<path d="M1110 440 l0 -70 53 2 c43 1 45 2 15 5 l-38 4 0 65 c0 50 -3 64 -15
64 -12 0 -15 -14 -15 -70z"/>
<path d="M1226 498 c4 -7 18 -27 31 -44 13 -17 23 -43 23 -57 0 -14 5 -29 10
-32 6 -4 10 7 10 25 0 19 12 49 30 76 23 32 27 44 16 44 -8 0 -23 -13 -33 -30
-9 -16 -20 -30 -23 -30 -3 0 -14 14 -23 30 -10 17 -25 30 -33 30 -9 0 -12 -5
-8 -12z"/>
<path d="M1390 440 c0 -78 17 -96 22 -22 l3 47 22 -47 c12 -27 28 -48 36 -48
7 0 23 21 34 48 l21 47 1 -47 c1 -36 5 -48 16 -48 12 0 15 14 15 70 0 62 -2
70 -19 70 -13 0 -26 -17 -43 -57 l-25 -58 -29 58 c-39 79 -54 75 -54 -13z"/>
<path d="M1590 440 c0 -56 3 -70 15 -70 9 0 15 9 15 25 0 22 4 25 33 25 38 0
57 15 57 45 0 33 -20 45 -72 45 l-48 0 0 -70z m93 38 c8 -24 -5 -38 -34 -38
-24 0 -29 4 -29 25 0 21 5 25 29 25 16 0 31 -6 34 -12z"/>
<path d="M1740 440 c0 -56 3 -70 15 -70 12 0 15 14 15 70 0 56 -3 70 -15 70
-12 0 -15 -14 -15 -70z"/>
<path d="M1816 488 c-46 -66 16 -149 87 -117 30 13 44 39 22 39 -8 0 -15 -4
-15 -9 0 -14 -41 -21 -61 -10 -24 13 -34 52 -19 78 12 23 58 29 77 10 6 -6 17
-9 23 -7 9 3 8 9 -4 21 -26 26 -91 23 -110 -5z"/>
<path d="M1979 494 c-18 -22 -1 -46 42 -60 22 -8 34 -18 34 -30 0 -25 -32 -30
-56 -8 -21 19 -35 14 -26 -10 9 -23 64 -30 92 -12 41 27 27 59 -32 75 -15 4
-29 14 -31 23 -4 23 28 31 55 12 28 -18 42 -12 23 11 -17 20 -84 20 -101 -1z"/>
</g>
</svg>
